<?xml version="1.0" standalone="no"?>
<!DOCTYPE svg PUBLIC "-//W3C//DTD SVG 20010904//EN"
 "http://www.w3.org/TR/2001/REC-SVG-20010904/DTD/svg10.dtd">
<svg version="1.0" xmlns="http://www.w3.org/2000/svg"
 width="450.000000pt" height="300.000000pt" viewBox="0 0 450.000000 300.000000"
 preserveAspectRatio="xMidYMid meet">
<metadata>
Created by potrace 1.10, written by Peter Selinger 2001-2011
</metadata>
<g transform="translate(0.000000,300.000000) scale(0.100000,-0.100000)"
fill="#000000" stroke="none">
<path d="M2135 2780 c-16 -18 -18 -52 -21 -435 -2 -260 1 -413 7 -410 5 4 9
-2 10 -12 0 -11 3 -13 6 -5 2 6 8 10 12 8 8 -5 639 -171 956 -251 72 -18 122
-33 112 -34 -15 -1 -16 -5 -7 -21 6 -11 8 -26 5 -33 -4 -6 1 -3 9 7 9 11 16
26 16 33 0 7 5 13 11 13 5 0 7 5 4 10 -3 6 -1 10 4 10 8 0 11 129 11 414 l0
415 -22 24 c-20 22 -95 43 -554 156 -293 72 -534 131 -536 131 -3 0 -13 -9
-23 -20z m545 -145 c278 -68 515 -128 527 -132 l22 -8 6 -412 c3 -260 1 -414
-5 -418 -9 -6 -582 138 -1010 254 l-65 18 -3 411 c-2 328 0 412 11 412 7 0
239 -56 517 -125z"/>
<path d="M2320 2551 c-19 -18 -32 -44 -36 -70 -5 -34 -10 -41 -29 -41 -13 0
-33 -9 -46 -20 -28 -22 -14 -27 15 -5 27 20 62 18 120 -8 l49 -23 81 43 c45
23 89 43 99 43 19 0 114 -52 225 -123 l63 -40 -68 -30 c-37 -16 -73 -34 -79
-38 -7 -6 -22 -5 -38 1 -15 5 -26 6 -26 0 0 -5 26 -16 58 -24 123 -34 341
-109 410 -141 41 -19 72 -29 70 -23 -5 13 -94 52 -233 101 l-90 32 75 8 c41 4
114 6 163 5 48 -2 87 0 87 4 0 9 -114 21 -137 14 -13 -4 -26 6 -45 34 -15 22
-33 40 -39 40 -6 0 3 -17 21 -37 l31 -38 -38 -3 c-21 -1 -61 -7 -88 -12 -39
-6 -65 -4 -115 9 -75 21 -76 20 68 76 91 35 232 60 302 53 22 -2 40 1 40 6 0
14 -207 0 -264 -18 l-49 -15 -49 34 c-27 18 -45 36 -39 39 20 13 77 9 108 -7
34 -18 64 -23 47 -9 -5 5 -29 17 -54 26 -37 15 -51 16 -87 5 -42 -11 -45 -11
-121 33 -93 54 -102 57 -127 48 -15 -5 -23 0 -35 24 -38 76 -146 102 -200 47z
m124 5 c33 -14 76 -59 76 -80 0 -7 -29 -26 -65 -44 l-66 -32 -50 21 c-48 21
-50 23 -43 53 17 82 73 113 148 82z"/>
<path d="M2483 2362 c-48 -18 -52 -26 -23 -42 24 -13 26 -42 5 -60 -30 -25
-58 -83 -62 -128 -4 -53 -5 -54 -25 -47 -10 4 -14 14 -10 27 3 14 1 19 -6 14
-7 -4 -12 -14 -12 -22 0 -8 -7 -14 -15 -14 -9 0 -15 9 -15 25 0 14 -5 25 -11
25 -7 0 -9 -9 -6 -21 5 -19 2 -20 -36 -14 -23 4 -50 9 -59 11 -10 3 -18 1 -18
-5 0 -6 11 -11 23 -11 38 0 305 -56 455 -96 237 -62 400 -128 485 -196 21 -16
40 -28 43 -25 8 8 -56 57 -110 84 -64 32 -61 29 -46 48 7 9 10 18 7 21 -3 3
-11 -3 -18 -14 -7 -11 -19 -18 -26 -15 -11 4 -11 10 2 30 9 14 14 27 12 30 -3
2 -13 -7 -22 -21 -18 -28 -35 -26 -35 3 0 10 -8 25 -17 32 -17 15 -17 13 3
-37 3 -6 -24 -1 -59 10 -63 21 -64 21 -49 44 8 12 13 25 10 27 -3 3 -11 -6
-18 -20 -16 -30 -34 -33 -27 -5 6 23 -8 27 -17 5 -4 -11 -13 -14 -33 -9 -41
10 -44 13 -33 35 7 12 7 19 1 19 -5 0 -13 -9 -16 -20 -9 -29 -25 -25 -26 8 -2
23 -2 24 -6 5 -5 -27 0 -27 -88 -5 -68 18 -70 19 -66 48 1 16 7 37 12 46 8 15
13 16 29 6 13 -9 18 -19 14 -32 -4 -11 -2 -16 4 -12 5 3 13 -1 16 -10 5 -14 8
-14 21 0 8 8 12 22 9 31 -4 9 -3 15 2 14 5 -1 21 -1 35 0 21 1 27 6 27 26 0
21 -3 23 -15 14 -11 -10 -11 -14 -1 -22 9 -6 8 -7 -5 -3 -10 3 -23 6 -29 6 -6
0 0 9 13 20 13 10 19 19 14 20 -6 0 -17 -6 -24 -12 -10 -11 -11 -9 -6 7 6 18
5 17 -12 -3 l-19 -23 -30 43 c-28 41 -29 44 -12 61 10 9 29 17 43 17 37 0 31
21 -19 63 -51 42 -46 41 -103 19z m93 -28 c19 -15 34 -31 34 -36 0 -14 -66 -3
-116 18 l-39 17 30 13 c43 19 52 17 91 -12z m-26 -55 c13 -6 12 -9 -4 -15 -20
-8 -47 5 -54 25 -4 13 25 8 58 -10z m-42 -28 c22 -12 106 -111 99 -117 -10
-10 -55 19 -71 48 -10 16 -20 27 -23 24 -3 -3 1 -16 9 -29 14 -21 14 -25 -3
-46 -18 -22 -21 -23 -57 -9 -48 18 -51 42 -12 96 33 46 34 46 58 33z m-20
-151 c6 0 12 -9 12 -21 0 -15 -4 -19 -16 -15 -9 3 -23 6 -32 6 -28 0 -42 14
-36 37 5 19 8 20 32 7 15 -8 33 -14 40 -14z m122 4 c0 -8 -5 -12 -10 -9 -6 4
-8 11 -5 16 9 14 15 11 15 -7z"/>
<path d="M2200 2325 c8 -2 62 -11 119 -20 57 -9 111 -19 120 -22 11 -4 13 -3
6 4 -15 16 -92 31 -180 37 -44 3 -73 3 -65 1z"/>
<path d="M3062 2255 c0 -16 2 -22 5 -12 2 9 2 23 0 30 -3 6 -5 -1 -5 -18z"/>
<path d="M2250 2260 c138 -19 166 -21 148 -10 -9 6 -61 12 -115 15 -89 4 -92
3 -33 -5z"/>
<path d="M2190 2190 c0 -9 189 -3 199 6 2 2 -41 4 -97 4 -60 0 -102 -4 -102
-10z"/>
<path d="M2740 2162 c0 -5 26 -15 58 -22 89 -20 219 -68 310 -115 45 -23 82
-38 82 -34 0 16 -161 90 -279 129 -138 45 -171 53 -171 42z"/>
<path d="M2745 2103 c150 -37 300 -103 393 -173 28 -22 52 -35 52 -30 0 16
-125 99 -202 135 -79 36 -209 76 -243 74 -20 -1 -20 -1 0 -6z"/>
<path d="M2300 2035 c0 -6 5 -16 12 -23 15 -15 15 -15 -52 3 -57 15 -87 19
-78 10 3 -3 63 -21 134 -40 154 -41 434 -133 547 -181 44 -18 83 -32 85 -29 6
6 -110 59 -121 57 -5 -2 -6 2 -2 7 7 12 -23 87 -31 78 -3 -3 2 -19 11 -37 9
-18 15 -34 12 -36 -2 -2 -55 14 -117 36 -62 22 -115 40 -118 40 -3 0 5 11 18
25 13 14 19 25 12 25 -6 0 -20 -12 -31 -26 -22 -28 -24 -26 -22 16 l0 25 -12
-26 c-11 -24 -37 -29 -37 -8 0 14 -42 69 -53 69 -5 0 3 -16 17 -35 32 -41 29
-42 -51 -14 -53 17 -62 24 -66 47 -4 26 -4 26 -6 -3 l-1 -30 -25 30 c-13 17
-24 25 -25 20z"/>
<path d="M2387 2013 c-4 -3 -7 -11 -7 -17 0 -6 5 -5 12 2 6 6 9 14 7 17 -3 3
-9 2 -12 -2z"/>
<path d="M2844 1876 c-10 -40 3 -47 41 -23 19 12 34 25 35 30 0 11 -57 -20
-64 -35 -3 -7 -3 2 0 20 7 37 -3 44 -12 8z"/>
<path d="M1827 2599 c-23 -13 -57 -81 -57 -114 0 -28 -3 -29 -29 -15 -14 7
-23 5 -36 -10 -23 -25 -14 -57 30 -110 26 -31 35 -51 35 -79 0 -20 7 -47 17
-60 15 -23 17 -23 30 -6 7 11 13 24 13 31 0 6 20 31 44 56 25 24 48 56 51 71
8 32 -8 57 -36 57 -23 0 -23 -2 1 51 24 53 25 87 4 117 -16 24 -39 27 -67 11z
m43 -89 c-6 -21 -21 -57 -34 -81 -24 -44 -43 -109 -32 -109 3 0 22 18 42 40
31 35 64 52 64 35 0 -19 -35 -68 -65 -91 -28 -21 -35 -33 -35 -61 0 -20 -4
-32 -10 -28 -5 3 -10 28 -10 54 0 40 -7 59 -42 110 -30 45 -38 65 -30 73 8 8
18 -4 39 -41 15 -28 31 -51 36 -51 4 0 7 33 7 73 0 71 21 128 54 149 18 11 27
-31 16 -72z"/>
<path d="M1827 2486 c-4 -10 -7 -25 -6 -34 0 -11 4 -9 10 7 5 13 8 29 6 35 -2
5 -6 2 -10 -8z"/>
<path d="M1210 2555 c-337 -63 -350 -66 -371 -88 -10 -12 -19 -31 -19 -44 0
-13 18 -123 40 -245 22 -123 40 -234 40 -249 0 -25 -4 -26 -152 -58 -84 -18
-160 -34 -168 -36 -8 -2 -23 -4 -33 -4 -34 -2 -57 -38 -57 -90 0 -28 6 -55 13
-63 11 -10 15 -82 21 -303 5 -217 10 -295 21 -311 9 -14 65 -38 187 -78 95
-32 174 -59 174 -60 1 0 -4 -30 -12 -66 -7 -36 -14 -95 -14 -132 0 -50 -5 -76
-20 -100 -26 -43 -26 -90 1 -114 17 -15 38 -19 117 -20 54 -1 151 -5 217 -9
106 -6 129 -4 195 15 41 12 107 25 146 28 109 10 140 54 94 130 -11 18 -20 37
-20 42 0 6 41 10 99 10 73 0 117 6 167 21 38 12 95 22 127 23 50 1 61 5 77 26
26 33 25 50 -5 94 -30 44 -33 71 -8 62 10 -4 64 -20 122 -36 57 -16 107 -34
111 -40 4 -6 14 -8 24 -4 12 5 19 1 23 -15 3 -11 10 -21 15 -21 5 0 7 4 3 9
-3 5 -1 12 4 15 5 4 8 -2 7 -11 -2 -11 -23 -26 -57 -40 -211 -85 -258 -109
-265 -137 -3 -15 -35 -49 -74 -81 -72 -59 -80 -70 -80 -115 0 -58 22 -69 350
-182 138 -47 200 -51 239 -14 33 31 366 186 406 190 21 1 43 14 68 42 35 37
36 43 37 109 0 39 6 77 13 85 7 8 46 32 88 52 l76 38 1 72 c1 47 -2 66 -7 53
-6 -13 -11 17 -15 90 -14 242 -39 372 -87 467 -11 21 -19 52 -19 71 l0 33
-202 56 c-112 30 -207 52 -211 48 -4 -4 -3 -18 2 -33 8 -20 5 -38 -14 -85 -51
-125 -60 -191 -59 -412 1 -113 5 -224 10 -248 l9 -43 105 -34 c58 -18 148 -45
200 -61 52 -15 97 -29 98 -30 2 -1 0 -9 -5 -17 -6 -11 -49 -1 -238 60 -126 40
-239 73 -250 73 -11 -1 -31 -7 -45 -15 -14 -8 -33 -14 -44 -15 -15 0 -16 3 -6
15 9 10 9 15 1 15 -30 0 -3 23 64 54 l75 35 0 160 c0 200 -15 343 -47 446 -14
44 -27 99 -30 122 -5 40 -7 43 -46 54 -23 6 -104 29 -180 51 -76 22 -140 38
-143 35 -6 -5 68 -29 259 -83 93 -26 97 -29 97 -55 l0 -28 -52 16 c-202 59
-302 94 -310 105 -5 7 -6 28 -3 46 5 25 2 32 -10 32 -8 0 -15 -7 -15 -15 0 -8
-4 -15 -10 -15 -6 0 -6 -9 0 -26 11 -28 3 -74 -12 -71 -6 1 -11 -28 -13 -68
-1 -38 -8 -101 -14 -140 -6 -38 -11 -97 -11 -130 l0 -60 -19 31 c-25 41 -65
68 -127 87 -28 8 -69 24 -92 36 -52 26 -97 27 -147 1 -22 -12 -62 -26 -89 -32
-55 -12 -66 -4 -66 48 0 53 -14 56 -136 33 -66 -13 -114 -27 -121 -37 -7 -9
-11 -31 -8 -51 3 -20 7 -51 9 -69 3 -19 7 -37 10 -40 4 -3 33 -1 66 4 l60 10
0 -37 c0 -20 3 -51 6 -68 l7 -32 -34 20 c-36 22 -92 27 -133 11 l-26 -10 0
160 c0 88 2 160 5 160 2 0 102 20 221 45 119 25 218 44 219 43 1 -2 8 -13 14
-25 8 -16 21 -23 42 -23 39 0 65 14 114 60 28 27 51 39 78 42 l37 4 0 -115 c0
-137 16 -140 23 -4 4 86 6 94 31 114 23 18 27 28 26 73 -1 28 3 66 9 84 5 18
10 35 11 37 0 3 -7 19 -15 36 -16 30 -15 31 29 101 58 90 60 130 11 156 -38
20 -70 -9 -115 -105 -26 -58 -31 -63 -60 -63 -32 0 -76 -35 -110 -88 -15 -23
-16 -24 -37 -5 -19 16 -29 56 -73 313 -57 338 -64 366 -90 380 -29 16 -69 11
-320 -35z m307 3 c10 -14 19 -57 83 -435 43 -248 46 -278 30 -288 -6 -4 -75
-20 -153 -35 -78 -16 -198 -41 -266 -55 -102 -21 -130 -23 -158 -14 -18 6 -33
14 -33 17 0 6 -51 290 -106 596 -16 91 -17 99 -1 111 9 6 76 22 149 35 73 13
196 36 273 51 164 32 170 33 182 17z m-625 -114 c-3 -15 3 -70 12 -123 10 -53
37 -204 61 -336 23 -132 42 -241 41 -242 -2 -2 -10 3 -19 10 -17 12 -35 100
-112 542 l-25 140 22 17 c13 10 24 18 24 18 1 0 -1 -12 -4 -26z m1126 -337 c5
-26 -96 -177 -114 -170 -8 3 -14 6 -14 8 0 8 73 162 82 173 15 17 42 11 46
-11z m-124 -178 c15 -12 26 -30 26 -45 0 -34 -95 -203 -107 -191 -2 3 16 38
41 78 51 82 57 120 24 143 -44 31 -66 21 -110 -49 -23 -36 -43 -63 -46 -61 -6
6 47 101 70 126 24 26 68 26 102 -1z m-23 -28 c20 -16 22 -23 14 -47 -9 -25
-14 -27 -68 -28 -31 -1 -57 0 -57 2 0 5 34 57 48 75 19 22 34 22 63 -2z m79
-71 c-11 -26 -80 -102 -80 -87 0 3 14 29 30 57 17 28 30 65 30 83 l1 32 15
-28 c13 -23 13 -34 4 -57z m-1005 -7 c4 -27 11 -55 16 -64 9 -18 93 -49 131
-49 43 0 537 107 553 120 8 7 15 19 15 26 0 12 5 12 30 -1 l30 -16 -20 -37
c-37 -70 -29 -67 -324 -126 l-277 -56 -280 83 c-258 76 -314 97 -257 97 24 0
296 55 338 69 34 11 37 8 45 -46z m903 -12 c11 -6 7 -19 -17 -56 -17 -27 -31
-56 -31 -66 0 -41 -127 -124 -160 -104 -28 17 13 137 61 182 46 42 117 63 147
44z m-1322 -20 c-7 -11 68 -36 339 -116 105 -31 198 -58 208 -61 12 -4 17 -16
17 -46 0 -28 -4 -39 -12 -35 -71 26 -555 167 -560 162 -2 -2 -2 18 -1 43 1 59
2 62 9 62 3 0 3 -4 0 -9z m1414 -63 c0 -28 -5 -31 -75 -43 l-40 -6 49 50 c52
53 66 53 66 -1z m477 -98 c22 0 25 -20 9 -68 -43 -132 -64 -428 -43 -619 l8
-71 -181 58 c-100 32 -184 61 -188 65 -3 3 -8 93 -10 199 -3 147 0 217 13 300
14 92 42 196 59 225 3 5 76 -13 163 -40 87 -27 163 -49 170 -49z m-786 48
l-17 -42 -235 -48 c-129 -26 -244 -50 -256 -53 -21 -5 -23 -2 -23 33 l0 38
273 56 c149 31 273 56 274 57 1 0 -6 -18 -16 -41z m-799 -85 l257 -77 -6 -170
c-3 -94 -6 -172 -7 -172 0 -1 -10 -4 -22 -8 -18 -6 -21 -2 -22 31 -2 67 -14
114 -28 120 -23 9 -256 -34 -266 -49 -11 -18 2 -130 17 -147 10 -11 25 -11 72
-3 32 5 59 9 59 8 1 0 4 -36 7 -79 4 -58 2 -78 -6 -74 -7 2 -83 28 -169 58
l-158 53 0 293 c0 161 3 293 8 293 4 0 123 -34 264 -77z m2023 12 c93 -26 173
-49 177 -52 5 -2 8 -16 8 -30 0 -20 -4 -24 -17 -18 -10 4 -94 29 -187 56 -93
27 -173 54 -178 61 -14 22 -9 40 10 34 9 -3 93 -26 187 -51z m-363 -115 c14
-54 22 -141 30 -308 6 -127 8 -235 5 -239 -4 -3 -18 6 -32 20 l-26 25 6 134
c8 145 -8 376 -27 393 -8 7 -9 3 -4 -15 4 -14 10 -130 13 -258 l6 -233 -27
-49 c-15 -28 -23 -50 -18 -50 5 0 15 14 22 30 17 41 23 43 50 15 l22 -24 -52
-26 c-29 -14 -54 -24 -57 -22 -2 3 -7 90 -10 194 -6 198 8 349 44 476 19 69
22 66 55 -63z m532 -1 c3 -2 -5 -40 -16 -84 -18 -69 -21 -120 -25 -373 -4
-249 -7 -293 -19 -288 -8 3 -61 20 -117 37 -56 17 -136 42 -178 55 l-76 25
-12 127 c-15 167 -14 248 4 357 12 77 52 215 69 244 5 7 358 -88 370 -100z
m-1891 -295 c-10 -7 -22 -14 -28 -14 -6 0 -9 61 -7 169 3 166 3 170 25 173 22
3 22 2 25 -156 2 -142 1 -160 -15 -172z m311 294 c3 -13 8 -44 11 -71 6 -43 4
-48 -17 -56 -36 -13 -208 -44 -214 -39 -3 3 -6 38 -7 78 l-2 73 85 18 c122 24
139 24 144 -3z m1667 -200 c26 -115 44 -466 26 -484 -7 -6 -42 -25 -79 -42
l-67 -31 3 287 c2 161 9 307 15 332 6 25 16 65 23 90 l12 45 23 -52 c13 -28
33 -93 44 -145z m-1355 157 c60 -30 159 -127 151 -148 -19 -49 -259 -69 -367
-30 -70 25 -75 46 -24 102 43 48 32 56 -13 9 -44 -46 -52 -82 -21 -102 47 -31
148 -49 243 -43 104 6 152 19 190 49 l27 21 -58 58 -58 58 39 -12 c57 -17 115
-76 115 -116 0 -49 -14 -65 -82 -97 -60 -28 -69 -29 -208 -29 -130 0 -150 3
-197 23 -73 34 -97 62 -89 106 5 26 15 40 36 51 18 9 30 24 30 35 0 13 11 22
37 29 20 6 40 8 45 5 4 -3 21 4 37 15 66 47 99 50 167 16z m-743 -195 c4 -30
6 -61 5 -69 -4 -18 -238 -65 -253 -50 -5 5 -11 38 -13 72 l-4 64 113 21 c63
11 121 19 129 18 10 -1 17 -19 23 -56z m977 -37 c-1 -24 -2 -26 -11 -10 -5 9
-7 22 -4 27 10 17 15 11 15 -17z m-689 -11 c41 -21 179 -132 179 -144 0 -18
-87 -50 -166 -60 -63 -9 -102 -9 -159 0 -83 13 -145 35 -145 52 0 14 75 95
113 122 34 24 92 47 122 48 12 0 37 -8 56 -18z m266 -48 c116 -27 293 -6 371
44 12 8 25 13 27 10 15 -14 37 -140 42 -235 l6 -113 -37 -35 c-61 -57 -159
-80 -332 -76 l-61 1 -6 68 c-4 37 -13 90 -21 116 -10 34 -12 56 -5 74 21 54
-41 142 -110 157 -29 6 -40 23 -25 38 4 3 24 -3 45 -14 21 -10 69 -26 106 -35z
m-54 -54 c124 -136 -191 -252 -458 -169 -80 24 -105 48 -105 99 0 30 8 48 31
75 17 19 27 35 21 35 -16 0 -61 -58 -69 -88 -3 -14 -1 -39 5 -55 13 -34 8 -49
-13 -40 -12 4 -15 24 -15 88 0 46 4 87 10 90 5 3 36 8 67 10 32 2 67 7 78 11
13 5 3 -11 -27 -45 -27 -29 -48 -57 -48 -62 0 -5 11 -16 24 -25 95 -61 367
-58 457 7 16 11 29 28 29 36 0 9 -2 14 -5 11 -4 -3 -23 9 -43 27 -20 18 -48
43 -62 54 -23 20 -20 19 35 -4 33 -14 72 -39 88 -55z m42 -222 c6 -32 4 -38
-27 -61 -18 -14 -57 -33 -85 -43 -29 -10 -53 -22 -53 -26 0 -11 107 29 139 52
16 11 32 20 35 20 3 0 6 -35 6 -77 0 -93 -18 -129 -82 -166 -78 -46 -158 -60
-293 -52 -66 4 -164 7 -218 8 -116 2 -127 11 -94 70 20 36 22 37 29 16 5 -12
11 -20 13 -17 3 3 1 17 -5 32 -19 51 -3 214 30 301 l9 23 45 -23 c65 -33 174
-49 283 -42 94 7 195 35 223 62 13 14 16 13 27 -12 6 -16 14 -45 18 -65z m506
-40 c16 -30 -6 -48 -58 -48 l-45 0 31 29 c17 16 31 37 31 46 0 15 3 15 16 5 8
-8 20 -22 25 -32z m667 -80 c125 -39 232 -76 239 -80 6 -5 10 -15 7 -23 -3 -7
-98 -52 -211 -101 l-206 -88 -233 78 c-129 43 -236 82 -239 87 -10 15 0 12
234 -66 123 -41 231 -75 240 -75 9 0 97 35 196 78 99 43 189 82 199 86 10 3
16 9 13 12 -3 3 -75 -24 -159 -61 -84 -36 -175 -75 -203 -86 l-50 -20 -237 79
-237 79 67 28 c157 66 279 117 307 130 17 7 34 14 38 14 5 1 110 -31 235 -71z
m-1110 -165 c-2 -14 -16 -19 -60 -23 l-58 -5 29 22 c15 12 34 36 41 53 l13 31
19 -30 c11 -17 18 -38 16 -48z m1352 -6 c0 -41 -2 -44 -47 -67 -77 -38 -446
-211 -472 -221 -13 -5 -21 -12 -18 -15 3 -3 16 0 29 7 21 11 22 11 10 -4 -22
-27 -93 -14 -267 48 -88 31 -180 64 -205 72 -53 19 -70 30 -70 50 0 11 4 11
20 3 45 -24 413 -150 438 -150 20 0 45 18 98 71 70 70 76 73 275 159 112 49
205 89 207 89 1 1 2 -18 2 -42z m-655 -53 l227 -77 -68 -68 c-42 -42 -76 -69
-89 -68 -30 1 -448 153 -451 164 -3 9 134 125 147 125 4 0 109 -34 234 -76z
m611 -39 c-26 -19 -42 -19 -26 0 7 8 20 15 29 15 13 -1 13 -3 -3 -15z"/>
<path d="M1181 2445 c-101 -18 -189 -39 -196 -47 -10 -10 -8 -42 14 -162 15
-89 31 -151 38 -153 18 -6 436 66 447 77 8 8 -26 269 -41 306 -7 20 -50 16
-262 -21z m249 20 c0 -2 11 -68 25 -146 14 -79 23 -144 20 -147 -4 -5 -207
-43 -342 -66 -61 -10 -85 -10 -91 -2 -14 18 -55 278 -45 286 4 4 78 20 163 34
85 15 171 31 190 36 41 9 80 12 80 5z"/>
<path d="M1261 2298 c-17 -29 -32 -57 -34 -62 -2 -5 -18 1 -35 14 -23 17 -35
21 -43 13 -7 -7 1 -20 28 -42 20 -17 43 -31 49 -31 7 0 28 30 48 66 42 76 45
85 29 91 -6 2 -26 -20 -42 -49z"/>
<path d="M1305 2070 c-4 -6 6 -7 26 -3 36 7 49 -6 49 -49 0 -16 5 -28 10 -28
10 0 4 63 -7 83 -6 11 -71 9 -78 -3z"/>
<path d="M1224 2062 c-7 -5 -7 -21 -2 -49 8 -40 11 -42 37 -37 24 5 29 2 33
-20 6 -30 2 -36 -24 -36 -11 0 -18 7 -18 20 0 11 -4 20 -10 20 -12 0 -12 -3
-1 -33 8 -20 15 -23 35 -20 33 7 37 14 30 53 -6 28 -10 31 -35 28 -16 -3 -29
-1 -29 4 0 4 11 8 25 8 26 0 32 19 19 54 -6 17 -41 21 -60 8z m46 -11 c0 -5 3
-16 6 -25 4 -12 0 -16 -15 -16 -26 0 -40 28 -20 41 18 11 29 11 29 0z"/>
<path d="M1245 2030 c3 -5 8 -10 11 -10 2 0 4 5 4 10 0 6 -5 10 -11 10 -5 0
-7 -4 -4 -10z"/>
<path d="M1328 2054 c-10 -9 4 -44 16 -44 19 0 24 9 19 31 -5 18 -23 25 -35
13z"/>
<path d="M1304 2020 c4 -19 9 -52 12 -72 5 -30 9 -36 23 -29 9 5 22 6 29 4 6
-3 12 1 12 7 0 8 -10 11 -25 8 -14 -3 -25 -1 -25 3 0 5 9 9 20 9 11 0 20 4 20
9 0 4 -11 6 -25 3 -23 -4 -25 -1 -25 29 0 19 -5 41 -11 49 -8 11 -9 6 -5 -20z"/>
<path d="M1350 1990 c0 -5 5 -10 10 -10 6 0 10 5 10 10 0 6 -4 10 -10 10 -5 0
-10 -4 -10 -10z"/>
<path d="M1391 1958 c-1 -16 4 -28 9 -28 12 0 12 8 0 35 -8 18 -9 17 -9 -7z"/>
<path d="M1258 1963 c7 -3 16 -2 19 1 4 3 -2 6 -13 5 -11 0 -14 -3 -6 -6z"/>
<path d="M1260 1940 c0 -5 5 -10 10 -10 6 0 10 5 10 10 0 6 -4 10 -10 10 -5 0
-10 -4 -10 -10z"/>
<path d="M1373 1880 c-7 -25 -20 -26 -26 -2 -3 12 -5 9 -6 -8 l-2 -25 -14 25
-15 25 -6 -22 c-3 -13 -11 -23 -16 -23 -6 0 -8 7 -4 15 3 8 0 15 -7 15 -7 0
-13 -11 -13 -25 -1 -14 2 -25 6 -25 21 0 40 14 40 29 1 15 1 15 10 -1 8 -14
27 -17 50 -8 3 1 12 3 20 4 8 0 16 11 18 24 4 28 -28 31 -35 2z m27 -6 c0 -8
-5 -12 -10 -9 -6 4 -8 11 -5 16 9 14 15 11 15 -7z"/>
<path d="M1726 1742 c-3 -6 -1 -14 5 -17 15 -10 25 3 12 16 -7 7 -13 7 -17 1z"/>
<path d="M1690 1649 c0 -5 5 -7 10 -4 6 3 10 8 10 11 0 2 -4 4 -10 4 -5 0 -10
-5 -10 -11z"/>
<path d="M2096 1524 c-4 -19 -10 -42 -13 -50 -9 -23 13 -16 24 9 11 22 11 22
18 -5 4 -16 11 -28 17 -28 5 0 7 9 3 19 -3 11 0 29 7 41 11 18 10 23 -6 36
-31 22 -43 17 -50 -22z m44 1 c0 -8 -7 -15 -15 -15 -16 0 -20 12 -8 23 11 12
23 8 23 -8z"/>
<path d="M2176 1504 c-4 -19 -10 -42 -13 -50 -3 -8 0 -14 5 -14 11 0 16 12 27
68 4 18 3 32 -3 32 -5 0 -13 -16 -16 -36z"/>
<path d="M2211 1494 c-10 -22 -9 -31 4 -50 8 -13 24 -24 35 -24 27 0 25 18 -2
22 -28 4 -34 27 -14 53 12 16 16 17 30 6 14 -11 16 -11 16 3 0 11 -9 16 -28
16 -21 0 -32 -7 -41 -26z"/>
<path d="M2293 1461 c-6 -28 -7 -51 -4 -51 3 0 16 -3 29 -6 13 -4 22 -2 22 5
0 6 -9 11 -21 11 -12 0 -19 5 -16 13 2 6 12 11 21 11 9 -1 16 2 16 7 0 5 -7 9
-16 9 -9 0 -14 6 -11 13 2 6 14 11 25 9 12 -2 22 2 22 7 0 6 -6 11 -14 11 -8
0 -21 2 -29 6 -10 4 -17 -8 -24 -45z"/>
<path d="M2100 1355 c0 -21 33 -75 59 -97 17 -15 31 -32 31 -39 0 -7 -13 -1
-28 14 -15 15 -35 27 -43 27 -7 -1 -2 -7 13 -16 31 -16 48 -43 48 -73 0 -27
12 -27 28 -1 7 12 25 26 40 32 17 6 22 12 14 15 -8 3 -28 -5 -45 -17 l-30 -23
6 24 c4 13 7 26 7 29 0 4 15 11 34 18 34 13 65 60 51 81 -8 14 -61 -13 -75
-38 -17 -34 -11 -34 19 -2 37 40 57 41 37 2 -9 -17 -26 -31 -41 -33 -22 -5
-28 0 -44 38 -11 23 -28 47 -39 53 -22 12 -42 14 -42 6z m60 -47 c22 -37 25
-48 10 -48 -10 0 -50 58 -50 73 0 18 22 4 40 -25z"/>
<path d="M2107 1070 c-3 -13 0 -20 9 -20 8 0 14 -5 14 -11 0 -6 -7 -9 -15 -6
-8 4 -17 2 -20 -3 -3 -5 4 -12 16 -15 14 -5 25 -2 30 6 13 20 11 27 -8 38 -16
9 -15 10 7 11 20 0 22 2 10 10 -23 15 -37 12 -43 -10z"/>
<path d="M2166 1042 c-4 -18 -5 -36 -2 -39 3 -4 6 0 6 7 0 9 5 7 16 -6 15 -18
15 -18 10 0 -4 10 -1 26 6 34 11 13 10 15 -4 9 -11 -4 -18 0 -21 11 -2 10 -6
4 -11 -16z"/>
<path d="M2217 1033 c-11 -10 -8 -33 4 -33 5 0 8 4 4 9 -3 5 -1 12 5 16 6 4 9
-4 8 -20 -2 -16 -7 -24 -15 -21 -7 3 -13 1 -13 -4 0 -16 37 -11 44 6 12 31 6
54 -12 54 -10 0 -22 -3 -25 -7z"/>
<path d="M2676 1412 c-2 -4 -7 -29 -10 -56 -5 -33 -4 -46 3 -41 6 3 11 13 11
21 0 8 5 14 10 14 6 0 10 -9 10 -19 0 -11 5 -23 11 -27 9 -5 10 1 5 20 -3 14
-2 26 3 26 15 0 22 31 11 45 -12 15 -48 26 -54 17z m39 -32 c0 -7 -6 -15 -12
-17 -8 -3 -13 4 -13 17 0 13 5 20 13 18 6 -3 12 -11 12 -18z"/>
<path d="M2755 1358 c-4 -18 -9 -41 -11 -50 -3 -10 -1 -18 5 -18 10 0 15 13
26 68 4 19 3 32 -3 32 -6 0 -13 -15 -17 -32z"/>
<path d="M2803 1368 c-18 -24 -21 -57 -6 -77 14 -21 53 -29 53 -11 0 6 -9 10
-19 10 -24 0 -31 18 -20 49 8 19 14 22 37 17 26 -6 26 -6 8 9 -24 18 -40 19
-53 3z"/>
<path d="M2881 1323 c-6 -21 -11 -43 -11 -49 0 -13 23 -24 48 -23 13 0 11 3
-5 11 -29 14 -31 38 -3 31 11 -3 20 0 20 6 0 6 -7 11 -15 11 -8 0 -15 7 -15
16 0 11 6 14 20 9 11 -4 20 -2 20 4 0 6 -4 11 -9 11 -5 0 -16 3 -24 6 -11 4
-19 -5 -26 -33z"/>
<path d="M2700 1190 c0 -41 39 -100 66 -100 8 0 14 -4 14 -9 0 -5 3 -18 6 -28
5 -16 4 -16 -13 2 -21 24 -64 55 -75 55 -19 0 -5 -17 22 -27 17 -6 39 -28 52
-49 22 -37 22 -37 28 -13 4 14 14 25 27 27 31 5 60 42 69 86 l7 39 -33 -7
c-35 -7 -60 -22 -60 -38 0 -5 10 -2 22 6 12 9 30 16 39 16 21 0 14 -41 -12
-69 -23 -24 -44 -28 -35 -6 18 44 18 51 2 31 -8 -10 -17 -24 -19 -30 -2 -6 -8
-8 -12 -4 -4 4 -3 14 4 21 8 11 8 23 0 48 -15 44 -34 65 -70 78 -29 10 -29 10
-29 -29z m53 0 c13 -11 28 -32 31 -46 10 -40 0 -40 -19 0 -10 20 -21 36 -26
36 -4 0 1 -16 13 -35 26 -45 17 -55 -16 -22 -17 17 -26 37 -26 57 0 35 8 37
43 10z"/>
<path d="M2670 950 c0 -5 5 -10 10 -10 6 0 8 -11 4 -25 -3 -14 -2 -25 4 -25 5
0 12 16 14 35 3 29 1 35 -14 35 -10 0 -18 -4 -18 -10z"/>
<path d="M2714 925 c-6 -25 9 -55 27 -55 17 0 31 51 18 66 -18 22 -38 17 -45
-11z m36 -10 c0 -14 -4 -25 -10 -25 -5 0 -10 11 -10 25 0 14 5 25 10 25 6 0
10 -11 10 -25z"/>
<path d="M2777 895 c-6 -35 0 -46 13 -25 8 13 10 12 10 -2 0 -10 4 -18 10 -18
5 0 7 7 4 15 -4 8 -1 22 6 30 8 10 9 15 2 15 -6 0 -14 -5 -18 -12 -5 -8 -10
-6 -14 7 -6 16 -8 14 -13 -10z"/>
<path d="M2837 893 c-11 -10 -8 -43 3 -43 6 0 10 -4 10 -10 0 -5 -8 -7 -17 -3
-14 5 -16 3 -6 -7 17 -19 40 -6 46 27 6 32 -17 56 -36 36z m23 -23 c0 -5 -4
-10 -10 -10 -5 0 -10 5 -10 10 0 6 5 10 10 10 6 0 10 -4 10 -10z"/>
<path d="M1386 1428 c-12 -33 -26 -37 -26 -7 0 11 5 17 10 14 6 -3 10 -1 10 4
0 17 -18 13 -29 -6 -6 -10 -11 -12 -11 -5 0 24 -30 12 -30 -12 0 -29 15 -42
33 -29 7 5 27 9 45 7 31 -2 37 4 33 35 -2 7 2 10 8 6 6 -3 11 0 11 7 0 26 -43
15 -54 -14z m21 -10 c-3 -8 -6 -5 -6 6 -1 11 2 17 5 13 3 -3 4 -12 1 -19z
m-73 -3 c3 -8 1 -15 -4 -15 -6 0 -10 7 -10 15 0 8 2 15 4 15 2 0 6 -7 10 -15z"/>
<path d="M1266 1429 c-3 -8 -7 -23 -9 -34 -3 -14 -5 -12 -6 8 0 16 -5 26 -10
23 -4 -3 -6 -17 -4 -30 4 -20 11 -24 32 -22 21 2 25 6 23 26 -3 31 -20 49 -26
29z"/>
<path d="M3045 1340 c21 -153 24 -200 25 -341 l0 -155 -30 -29 c-16 -16 -30
-33 -30 -39 0 -5 15 5 34 23 29 28 37 31 55 22 12 -7 21 -8 21 -2 0 5 -6 11
-13 14 -10 4 -15 47 -20 173 -8 187 -24 341 -39 364 -6 10 -7 1 -3 -30z"/>
<path d="M1685 1410 c-3 -5 -1 -10 4 -10 6 0 11 5 11 10 0 6 -2 10 -4 10 -3 0
-8 -4 -11 -10z"/>
<path d="M1615 1400 c-3 -5 -2 -10 4 -10 5 0 13 5 16 10 3 6 2 10 -4 10 -5 0
-13 -4 -16 -10z"/>
<path d="M1720 1350 c0 -5 4 -10 9 -10 6 0 13 5 16 10 3 6 -1 10 -9 10 -9 0
-16 -4 -16 -10z"/>
<path d="M1795 1340 c-3 -5 -1 -10 4 -10 6 0 11 5 11 10 0 6 -2 10 -4 10 -3 0
-8 -4 -11 -10z"/>
<path d="M1650 1320 c0 -5 4 -10 9 -10 6 0 13 5 16 10 3 6 -1 10 -9 10 -9 0
-16 -4 -16 -10z"/>
<path d="M1570 1310 c0 -5 5 -10 10 -10 6 0 10 5 10 10 0 6 -4 10 -10 10 -5 0
-10 -4 -10 -10z"/>
<path d="M1778 1283 c7 -3 16 -2 19 1 4 3 -2 6 -13 5 -11 0 -14 -3 -6 -6z"/>
<path d="M940 1235 c-11 -29 -30 -33 -30 -7 0 14 2 15 10 2 8 -13 10 -12 10 3
0 25 -28 21 -32 -5 -4 -27 -28 -37 -28 -11 0 15 2 16 10 3 8 -13 10 -12 10 3
0 28 -27 19 -32 -11 -3 -21 0 -28 14 -29 10 -1 20 2 23 7 3 5 12 7 19 4 8 -3
17 0 21 6 5 8 10 8 20 0 18 -15 29 4 21 36 -8 31 -24 31 -36 -1z m30 -10 c0
-8 -4 -15 -10 -15 -5 0 -10 7 -10 15 0 8 5 15 10 15 6 0 10 -7 10 -15z"/>
<path d="M980 1253 c0 -5 5 -15 10 -23 8 -12 10 -11 10 8 0 12 -4 22 -10 22
-5 0 -10 -3 -10 -7z"/>
<path d="M807 1234 c-13 -13 -7 -23 11 -18 13 5 14 4 3 -4 -8 -6 -11 -17 -8
-27 10 -24 26 -9 24 22 -2 26 -17 40 -30 27z"/>
<path d="M779 1225 c-9 -8 2 -55 12 -55 10 0 11 17 0 43 -3 10 -9 15 -12 12z"/>
<path d="M1285 1160 c-3 -5 1 -10 10 -10 9 0 13 5 10 10 -3 6 -8 10 -10 10 -2
0 -7 -4 -10 -10z"/>
<path d="M1185 1150 c3 -5 11 -10 16 -10 6 0 7 5 4 10 -3 6 -11 10 -16 10 -6
0 -7 -4 -4 -10z"/>
<path d="M1140 1100 c0 -5 7 -10 16 -10 8 0 12 5 9 10 -3 6 -10 10 -16 10 -5
0 -9 -4 -9 -10z"/>
<path d="M1280 1030 c-13 -8 -12 -10 3 -10 9 0 17 5 17 10 0 12 -1 12 -20 0z"/>
<path d="M1955 1009 c-16 -11 -47 -24 -67 -31 -21 -6 -38 -15 -38 -19 0 -16
132 40 145 61 9 15 -6 11 -40 -11z"/>
<path d="M1922 928 c-18 -11 -31 -22 -28 -25 7 -7 66 26 66 37 0 12 2 13 -38
-12z"/>
<path d="M1477 724 c-16 -9 -27 -18 -24 -20 6 -7 54 13 62 25 9 15 -5 13 -38
-5z"/>
<path d="M970 700 c0 -15 90 -103 98 -96 3 4 -10 20 -30 37 -20 16 -40 38 -43
49 -7 21 -25 28 -25 10z"/>
<path d="M2075 529 c-49 -49 -47 -51 90 -99 l96 -33 40 39 c21 21 39 43 39 49
0 8 -201 85 -222 85 -2 0 -22 -18 -43 -41z m157 -11 l98 -32 -36 -37 -36 -37
-104 36 -104 36 32 33 c17 18 36 33 42 33 5 0 54 -14 108 -32z"/>
<path d="M2356 434 c-10 -9 -15 -23 -12 -31 3 -8 6 -17 6 -19 0 -11 59 -2 70
11 32 38 -28 76 -64 39z m59 -4 c9 -15 -14 -40 -36 -40 -22 0 -27 35 -6 43 21
9 36 8 42 -3z"/>
<path d="M3500 2440 c-55 -57 -74 -103 -66 -163 19 -141 21 -152 36 -152 8 0
19 15 25 33 5 17 13 32 17 32 16 0 80 65 99 101 21 42 26 147 9 180 -20 36
-66 25 -120 -31z m104 -10 c11 -72 -21 -152 -78 -191 -27 -18 -38 -33 -42 -61
-4 -21 -10 -38 -15 -38 -14 0 -10 32 7 65 34 66 86 196 81 202 -4 3 -9 -3 -13
-13 -4 -10 -17 -44 -29 -74 -13 -30 -26 -63 -29 -72 -9 -29 -25 -21 -31 16 -9
48 21 111 78 164 26 23 51 42 55 42 5 0 12 -18 16 -40z"/>
<path d="M3393 2073 c-12 -2 -33 -16 -47 -30 -30 -30 -29 9 -27 -672 1 -457 2
-463 64 -494 18 -9 128 -42 245 -73 232 -61 265 -63 307 -18 21 22 23 37 28
167 3 78 4 320 2 538 -3 427 -5 440 -57 467 -26 13 -461 123 -480 121 -7 -1
-23 -4 -35 -6z m190 -63 c267 -67 311 -80 330 -102 16 -19 17 -60 17 -553 0
-494 -1 -533 -17 -547 -30 -25 -77 -20 -236 23 -274 73 -298 81 -313 104 -12
18 -14 107 -12 550 3 470 5 529 19 538 20 12 462 -99 493 -125 21 -16 21 -22
21 -556 0 -297 3 -538 8 -535 4 2 7 240 7 529 0 558 -1 574 -47 588 -10 3
-108 28 -218 57 -176 45 -248 68 -222 69 4 0 81 -18 170 -40z"/>
<path d="M3580 1930 c75 -24 127 -34 115 -23 -12 12 -128 43 -152 42 -10 -1 7
-9 37 -19z"/>
<path d="M3430 1797 l0 -56 38 -10 c62 -18 72 -12 72 48 0 41 -21 62 -68 68
l-42 6 0 -56z m83 26 c4 -2 7 -24 7 -49 0 -41 -2 -45 -20 -40 -11 3 -29 9 -40
12 -16 4 -20 14 -20 50 l0 46 33 -7 c17 -4 35 -9 40 -12z"/>
<path d="M3580 1783 c0 -4 46 -19 103 -32 56 -13 109 -26 117 -29 10 -3 12 -2
5 5 -5 5 -50 20 -100 32 -49 13 -98 25 -107 28 -10 2 -18 1 -18 -4z"/>
<path d="M3580 1730 c0 -10 150 -49 155 -40 3 4 -31 17 -75 28 -44 11 -80 16
-80 12z"/>
<path d="M3434 1656 c-3 -7 -4 -33 -2 -57 3 -41 5 -44 45 -55 38 -11 44 -11
52 4 12 25 1 91 -18 101 -36 18 -71 22 -77 7z m60 -16 c22 -8 26 -16 26 -50 0
-43 -8 -48 -54 -30 -22 8 -26 16 -26 50 0 43 8 48 54 30z"/>
<path d="M3580 1601 c0 -8 127 -44 200 -57 68 -13 24 5 -87 34 -62 17 -113 27
-113 23z"/>
<path d="M3580 1550 c0 -4 20 -13 44 -19 24 -6 51 -13 60 -17 9 -3 16 -2 16 3
0 5 -27 16 -60 25 -33 9 -60 12 -60 8z"/>
<path d="M3430 1463 c0 -10 368 -108 376 -100 7 6 4 7 -190 58 -87 22 -165 43
-172 46 -8 3 -14 1 -14 -4z"/>
<path d="M3432 1384 c10 -9 260 -75 266 -70 6 7 -1 9 -138 46 -117 30 -138 35
-128 24z"/>
<path d="M3430 1313 c0 -4 53 -21 118 -37 166 -41 158 -40 147 -29 -5 6 -59
22 -120 37 -60 15 -118 30 -127 32 -10 3 -18 2 -18 -3z"/>
<path d="M3740 1301 c0 -10 60 -24 68 -16 8 8 0 12 -35 18 -18 4 -33 3 -33 -2z"/>
<path d="M3530 1167 c0 -52 1 -52 53 -62 l37 -7 0 45 c0 52 -1 52 -53 62 l-37
7 0 -45z m78 -20 c3 -37 3 -38 -25 -31 -41 10 -43 12 -43 48 0 32 1 33 33 27
28 -6 32 -11 35 -44z"/>
<path d="M3670 1140 c0 -6 6 -10 14 -10 8 0 18 -5 22 -12 5 -8 2 -9 -9 -5 -10
3 -17 2 -17 -3 0 -6 7 -10 15 -10 20 0 20 -49 -1 -78 -23 -34 -42 -28 -46 15
-3 37 -4 37 -63 50 -33 7 -73 15 -90 18 l-30 5 28 -11 c32 -13 34 -20 6 -45
-21 -19 -20 -54 3 -81 13 -16 60 -17 75 -2 7 7 28 7 72 -2 48 -10 61 -17 61
-31 0 -10 11 -23 25 -30 32 -14 59 6 52 39 -2 12 1 24 7 26 12 4 -19 57 -34
57 -13 0 -13 37 0 45 16 10 12 45 -6 52 -9 3 -20 0 -24 -7 -6 -10 -10 -9 -16
2 -11 18 -44 31 -44 18z m90 -46 c0 -16 -16 -19 -25 -4 -8 13 4 32 16 25 5 -4
9 -13 9 -21z m-137 -30 c13 -4 15 -12 11 -31 -5 -19 -2 -30 11 -40 11 -7 14
-13 8 -13 -25 0 -44 14 -59 41 -8 16 -26 32 -39 35 -14 3 -25 11 -25 16 0 9
47 5 93 -8z m108 -20 c2 -16 -1 -39 -5 -51 -6 -18 -3 -23 9 -23 9 0 13 -4 10
-10 -3 -5 -1 -10 4 -10 6 0 11 5 11 12 0 9 3 9 11 1 18 -18 2 -45 -23 -41 -15
2 -24 11 -26 26 -3 21 -12 26 -39 23 -19 -3 -16 5 12 33 14 14 25 37 25 52 0
36 9 27 11 -12z m-154 -20 c29 -29 25 -41 -9 -23 -23 13 -28 15 -60 17 -27 3
-10 32 19 32 13 0 35 -12 50 -26z m203 -34 c0 -5 -9 -6 -19 -3 -12 3 -17 11
-14 19 4 11 9 12 19 3 8 -6 14 -15 14 -19z m-212 -4 c10 -11 -31 -19 -46 -9
-31 19 -25 33 9 23 17 -5 34 -12 37 -14z"/>
<path d="M2088 1879 c-2 -22 0 -43 5 -46 10 -6 38 30 28 37 -14 10 -20 39 -8
44 7 2 5 5 -4 5 -13 1 -18 -10 -21 -40z"/>
<path d="M2130 1890 c0 -5 4 -10 9 -10 6 0 13 5 16 10 3 6 -1 10 -9 10 -9 0
-16 -4 -16 -10z"/>
<path d="M3170 1629 c0 -5 5 -7 10 -4 6 3 10 8 10 11 0 2 -4 4 -10 4 -5 0 -10
-5 -10 -11z"/>
<path d="M1954 1565 c3 -23 12 -26 13 -5 1 11 -2 20 -7 20 -4 0 -7 -7 -6 -15z"/>
<path d="M3170 1469 c0 -5 5 -7 10 -4 6 3 10 8 10 11 0 2 -4 4 -10 4 -5 0 -10
-5 -10 -11z"/>
<path d="M3170 1227 c0 -15 4 -27 10 -27 5 0 9 9 7 20 -5 31 -17 36 -17 7z"/>
<path d="M3170 1083 c0 -62 3 -113 6 -113 3 0 12 6 20 14 9 10 10 16 3 18 -7
2 -12 22 -11 43 0 60 1 67 12 60 6 -3 10 -2 10 3 0 6 -7 12 -15 15 -8 3 -12
14 -10 25 2 10 -1 25 -6 33 -5 9 -9 -28 -9 -98z"/>
<path d="M3170 945 c0 -9 6 -12 15 -9 8 4 15 10 15 15 0 5 -7 9 -15 9 -8 0
-15 -7 -15 -15z"/>
<path d="M2440 860 c0 -5 5 -10 11 -10 5 0 7 5 4 10 -3 6 -8 10 -11 10 -2 0
-4 -4 -4 -10z"/>
<path d="M3357 748 c-14 -15 -29 -38 -33 -52 -5 -21 -9 -23 -24 -14 -41 26
-83 -35 -74 -109 4 -35 0 -49 -27 -86 -31 -45 -34 -77 -6 -77 8 0 21 8 31 19
14 16 22 17 56 8 35 -10 43 -8 67 9 16 12 29 30 31 41 2 15 9 19 25 16 25 -5
77 30 77 52 0 7 -7 20 -15 29 -22 21 -19 26 17 26 32 0 88 41 88 65 0 37 -69
57 -113 34 -16 -9 -22 -9 -25 0 -2 7 -14 24 -27 39 l-22 26 -26 -26z m40 -49
c-3 -22 -13 -49 -23 -60 -25 -28 -9 -23 56 16 53 32 120 47 120 27 0 -14 -58
-42 -88 -42 -17 0 -47 -10 -67 -21 -20 -12 -38 -20 -40 -17 -11 10 -7 77 6
106 21 48 43 42 36 -9z m-102 -63 c4 -19 2 -43 -4 -55 -14 -25 -4 -27 21 -4
12 11 32 16 55 15 42 -3 96 -29 88 -42 -9 -15 -63 -12 -96 6 -29 15 -32 14
-65 -11 -19 -14 -34 -29 -34 -33 0 -4 20 -7 45 -8 25 0 48 -4 52 -8 15 -15
-24 -27 -69 -21 -44 5 -50 3 -78 -27 -43 -48 -37 -20 8 32 34 40 37 50 38 105
0 34 4 67 8 73 13 21 25 13 31 -22z"/>
</g>
</svg>
